<svg width="0" height="0" class="hidden">
  <symbol aria-hidden="true" data-prefix="fas" data-icon="quote-right" xmlns="http://www.w3.org/2000/svg" viewBox="0 0 512 512" id="quote">
    <path d="M464 32H336c-26.5 0-48 21.5-48 48v128c0 26.5 21.5 48 48 48h80v64c0 35.3-28.7 64-64 64h-8c-13.3 0-24 10.7-24 24v48c0 13.3 10.7 24 24 24h8c88.4 0 160-71.6 160-160V80c0-26.5-21.5-48-48-48zm-288 0H48C21.5 32 0 53.5 0 80v128c0 26.5 21.5 48 48 48h80v64c0 35.3-28.7 64-64 64h-8c-13.3 0-24 10.7-24 24v48c0 13.3 10.7 24 24 24h8c88.4 0 160-71.6 160-160V80c0-26.5-21.5-48-48-48z"></path>
  </symbol>

  <symbol version="1.0" xmlns="http://www.w3.org/2000/svg" viewBox="0 0 105 73" id="graph">
    <path d="M87.9 9.8c-1.5 1.3-2.2 3-2.2 5 0 2.8-1.3 4.3-9.3 11.2-8.6 7.4-9.5 7.9-11.8 6.9-1.9-.9-3.2-.9-5.4 0-2.7 1.1-3.7.9-10.1-2.3-3.9-2-7.1-4.1-7.1-4.7 0-2-5-5.9-7.5-5.9-3.9 0-7.9 4.4-7.2 8 .5 2.5-.4 4-6.9 11.4-6.2 7.2-8 8.6-10.4 8.6-5.9 0-9 6.7-5.4 11.8C5.7 61.4 7.1 62 9.9 62c4.6 0 7.1-2.4 7.5-7.4.4-4.4 12.8-19.4 16.3-19.5 1.2-.1 3.3-.6 4.6-1.2 2-.9 3.5-.5 9.5 2.5 4 2 7.2 4.2 7.2 4.9 0 2.2 4.4 5.7 7.1 5.7 3.3 0 6.5-2.4 7.3-5.5.4-1.4 4.6-6 10.3-10.9 8-7 10.2-8.4 12.3-8 3.9.8 8-2.9 8-7.2 0-6.5-6.9-9.7-12.1-5.6z"></path>
  </symbol>

  <symbol version="1.0" xmlns="http://www.w3.org/2000/svg" viewBox="0 0 105 95" id="heart">
    <path d="M22 4.5c-6.5 2.1-11.4 6.6-15.1 14-2.8 5.7-3.1 7.2-2.7 13.3.5 9.7 2.9 13.5 21 33.4C49.8 92.4 48.3 91 51.8 91c1.7 0 3.7-.2 4.5-.5 2.9-1.2 40.2-42.7 42.4-47.3 3.2-6.6 3.1-16.8-.1-23.7-4-8.6-12.7-15.1-21.5-16.2-6.4-.7-10.9.9-18.5 6.6l-6.2 4.7-3.9-3.3c-8.8-7.6-17-9.7-26.5-6.8zM37.9 11c2.1 1 6.3 4.2 9.3 6.9l5.5 5 2.9-3c1.6-1.7 5.5-4.8 8.8-7 4.5-3 6.8-3.9 10-3.9 13.4.1 23.7 13.9 20.7 27.6-1.4 5.9-1 5.4-25.4 31.9-10.5 11.3-15.5 16-17.1 16-1.6 0-7.3-5.7-20.7-20.5-10.2-11.3-19.3-21.9-20.1-23.5C2.9 22.9 21.1 2.4 37.9 11z"></path>
  </symbol>

  <symbol version="1.0" xmlns="http://www.w3.org/2000/svg" viewBox="0 0 105 103" id="key">
    <path d="M57.8 4C41 8.2 32 28.5 40.3 43.4l2.5 4.5-16 15.8C18 72.4 10.4 80.3 9.9 81.3c-.9 1.5.4 3.3 7.9 10.9 6.4 6.5 9.4 8.9 10.6 8.5 3-1.2 1.6-4.2-4.9-10.7-3.6-3.5-6.5-6.9-6.5-7.5 0-.6 1.6-2.6 3.5-4.5l3.5-3.4 7.5 7.3c4.1 4 8 7.1 8.7 6.9 3-1 1.6-4.1-4.6-11-3.6-4-6.6-7.5-6.6-7.8 0-.3 4-4.5 8.9-9.4l8.9-8.9 2.9 2C60 61 75.4 58.9 84.2 49.2c5.1-5.7 7-10.5 7.1-18.2.1-11-5.2-19.8-14.7-24.5C70.7 3.6 63.3 2.6 57.8 4zm16.1 7.6c12 6 15.7 21.1 7.8 31.7-8.9 11.8-27 11.5-35.4-.6-3.8-5.4-4.5-15.5-1.5-21.3C50.6 10.1 62.7 6 73.9 11.6z"></path>
  </symbol>

  <symbol version="1.0" xmlns="http://www.w3.org/2000/svg" viewBox="0 0 186 185" id="right-arrow">
    <path d="M87.4 13C80.4 15.2 74 24.3 74 32c0 7.3 2 10.2 16.7 25.2l14.6 14.7-40.5.3-40.5.3-4.1 2.9c-6.4 4.4-8.7 8.8-8.7 16.6 0 7.8 2.3 12.2 8.7 16.6l4.1 2.9 40.5.3 40.5.3-14.6 14.7C78.5 139.2 76 142.3 75 146c-4.3 15.8 9.2 29.2 25 25 4-1.1 8-4.7 36.8-33.3 17.8-17.7 33.2-33.6 34.3-35.3 2.6-4.2 3.4-10.9 1.9-16.4-1.1-4-4.7-8-33.3-36.8C122 31.4 106 16 104.3 14.9c-3.8-2.3-12.4-3.3-16.9-1.9z"></path>
  </symbol>

  <symbol xmlns="http://www.w3.org/2000/svg" viewBox="0 0 24 24" id="instagram">
    <path d="M12 2.163c3.204 0 3.584.012 4.85.07 3.252.148 4.771 1.691 4.919 4.919.058 1.265.069 1.645.069 4.849 0 3.205-.012 3.584-.069 4.849-.149 3.225-1.664 4.771-4.919 4.919-1.266.058-1.644.07-4.85.07-3.204 0-3.584-.012-4.849-.07-3.26-.149-4.771-1.699-4.919-4.92-.058-1.265-.07-1.644-.07-4.849 0-3.204.013-3.583.07-4.849.149-3.227 1.664-4.771 4.919-4.919 1.266-.057 1.645-.069 4.849-.069zM12 0C8.741 0 8.333.014 7.053.072 2.695.272.273 2.69.073 7.052.014 8.333 0 8.741 0 12c0 3.259.014 3.668.072 4.948.2 4.358 2.618 6.78 6.98 6.98C8.333 23.986 8.741 24 12 24c3.259 0 3.668-.014 4.948-.072 4.354-.2 6.782-2.618 6.979-6.98.059-1.28.073-1.689.073-4.948 0-3.259-.014-3.667-.072-4.947-.196-4.354-2.617-6.78-6.979-6.98C15.668.014 15.259 0 12 0zm0 5.838a6.162 6.162 0 100 12.324 6.162 6.162 0 000-12.324zM12 16a4 4 0 110-8 4 4 0 010 8zm6.406-11.845a1.44 1.44 0 100 2.881 1.44 1.44 0 000-2.881z"></path>
  </symbol>

  <symbol xmlns="http://www.w3.org/2000/svg" viewBox="0 0 24 24" id="twitter">
    <path d="M24 4.557a9.83 9.83 0 01-2.828.775 4.932 4.932 0 002.165-2.724 9.864 9.864 0 01-3.127 1.195 4.916 4.916 0 00-3.594-1.555c-3.179 0-5.515 2.966-4.797 6.045A13.978 13.978 0 011.671 3.149a4.93 4.93 0 001.523 6.574 4.903 4.903 0 01-2.229-.616c-.054 2.281 1.581 4.415 3.949 4.89a4.935 4.935 0 01-2.224.084 4.928 4.928 0 004.6 3.419A9.9 9.9 0 010 19.54a13.94 13.94 0 007.548 2.212c9.142 0 14.307-7.721 13.995-14.646A10.025 10.025 0 0024 4.557z"></path>
  </symbol>
  
  <symbol xmlns="http://www.w3.org/2000/svg" viewBox="0 0 24 24" id="facebook">
    <path d="M9 8H6v4h3v12h5V12h3.642L18 8h-4V6.333C14 5.378 14.192 5 15.115 5H18V0h-3.808C10.596 0 9 1.583 9 4.615V8z"></path>
  </symbol>
</svg>