<svg width="0" height="0" class="hidden">
  <symbol aria-hidden="true" data-prefix="fas" data-icon="quote-right" xmlns="http://www.w3.org/2000/svg" viewBox="0 0 512 512" id="quote">
    <path d="M464 32H336c-26.5 0-48 21.5-48 48v128c0 26.5 21.5 48 48 48h80v64c0 35.3-28.7 64-64 64h-8c-13.3 0-24 10.7-24 24v48c0 13.3 10.7 24 24 24h8c88.4 0 160-71.6 160-160V80c0-26.5-21.5-48-48-48zm-288 0H48C21.5 32 0 53.5 0 80v128c0 26.5 21.5 48 48 48h80v64c0 35.3-28.7 64-64 64h-8c-13.3 0-24 10.7-24 24v48c0 13.3 10.7 24 24 24h8c88.4 0 160-71.6 160-160V80c0-26.5-21.5-48-48-48z"></path>
  </symbol>

  <symbol version="1.0" xmlns="http://www.w3.org/2000/svg" viewBox="0 0 105 73" id="graph">
    <path d="M87.9 9.8c-1.5 1.3-2.2 3-2.2 5 0 2.8-1.3 4.3-9.3 11.2-8.6 7.4-9.5 7.9-11.8 6.9-1.9-.9-3.2-.9-5.4 0-2.7 1.1-3.7.9-10.1-2.3-3.9-2-7.1-4.1-7.1-4.7 0-2-5-5.9-7.5-5.9-3.9 0-7.9 4.4-7.2 8 .5 2.5-.4 4-6.9 11.4-6.2 7.2-8 8.6-10.4 8.6-5.9 0-9 6.7-5.4 11.8C5.7 61.4 7.1 62 9.9 62c4.6 0 7.1-2.4 7.5-7.4.4-4.4 12.8-19.4 16.3-19.5 1.2-.1 3.3-.6 4.6-1.2 2-.9 3.5-.5 9.5 2.5 4 2 7.2 4.2 7.2 4.9 0 2.2 4.4 5.7 7.1 5.7 3.3 0 6.5-2.4 7.3-5.5.4-1.4 4.6-6 10.3-10.9 8-7 10.2-8.4 12.3-8 3.9.8 8-2.9 8-7.2 0-6.5-6.9-9.7-12.1-5.6z"></path>
  </symbol>

  <symbol version="1.0" xmlns="http://www.w3.org/2000/svg" viewBox="0 0 105 95" id="heart">
    <path d="M22 4.5c-6.5 2.1-11.4 6.6-15.1 14-2.8 5.7-3.1 7.2-2.7 13.3.5 9.7 2.9 13.5 21 33.4C49.8 92.4 48.3 91 51.8 91c1.7 0 3.7-.2 4.5-.5 2.9-1.2 40.2-42.7 42.4-47.3 3.2-6.6 3.1-16.8-.1-23.7-4-8.6-12.7-15.1-21.5-16.2-6.4-.7-10.9.9-18.5 6.6l-6.2 4.7-3.9-3.3c-8.8-7.6-17-9.7-26.5-6.8zM37.9 11c2.1 1 6.3 4.2 9.3 6.9l5.5 5 2.9-3c1.6-1.7 5.5-4.8 8.8-7 4.5-3 6.8-3.9 10-3.9 13.4.1 23.7 13.9 20.7 27.6-1.4 5.9-1 5.4-25.4 31.9-10.5 11.3-15.5 16-17.1 16-1.6 0-7.3-5.7-20.7-20.5-10.2-11.3-19.3-21.9-20.1-23.5C2.9 22.9 21.1 2.4 37.9 11z"></path>
  </symbol>

  <symbol version="1.0" xmlns="http://www.w3.org/2000/svg" viewBox="0 0 105 103" id="key">
    <path d="M57.8 4C41 8.2 32 28.5 40.3 43.4l2.5 4.5-16 15.8C18 72.4 10.4 80.3 9.9 81.3c-.9 1.5.4 3.3 7.9 10.9 6.4 6.5 9.4 8.9 10.6 8.5 3-1.2 1.6-4.2-4.9-10.7-3.6-3.5-6.5-6.9-6.5-7.5 0-.6 1.6-2.6 3.5-4.5l3.5-3.4 7.5 7.3c4.1 4 8 7.1 8.7 6.9 3-1 1.6-4.1-4.6-11-3.6-4-6.6-7.5-6.6-7.8 0-.3 4-4.5 8.9-9.4l8.9-8.9 2.9 2C60 61 75.4 58.9 84.2 49.2c5.1-5.7 7-10.5 7.1-18.2.1-11-5.2-19.8-14.7-24.5C70.7 3.6 63.3 2.6 57.8 4zm16.1 7.6c12 6 15.7 21.1 7.8 31.7-8.9 11.8-27 11.5-35.4-.6-3.8-5.4-4.5-15.5-1.5-21.3C50.6 10.1 62.7 6 73.9 11.6z"></path>
  </symbol>

  <symbol version="1.0" xmlns="http://www.w3.org/2000/svg" viewBox="0 0 186 185" id="right-arrow">
    <path d="M87.4 13C80.4 15.2 74 24.3 74 32c0 7.3 2 10.2 16.7 25.2l14.6 14.7-40.5.3-40.5.3-4.1 2.9c-6.4 4.4-8.7 8.8-8.7 16.6 0 7.8 2.3 12.2 8.7 16.6l4.1 2.9 40.5.3 40.5.3-14.6 14.7C78.5 139.2 76 142.3 75 146c-4.3 15.8 9.2 29.2 25 25 4-1.1 8-4.7 36.8-33.3 17.8-17.7 33.2-33.6 34.3-35.3 2.6-4.2 3.4-10.9 1.9-16.4-1.1-4-4.7-8-33.3-36.8C122 31.4 106 16 104.3 14.9c-3.8-2.3-12.4-3.3-16.9-1.9z"></path>
  </symbol>

  <symbol xmlns="http://www.w3.org/2000/svg" viewBox="0 0 24 24" id="instagram">
    <path d="M12 2.163c3.204 0 3.584.012 4.85.07 3.252.148 4.771 1.691 4.919 4.919.058 1.265.069 1.645.069 4.849 0 3.205-.012 3.584-.069 4.849-.149 3.225-1.664 4.771-4.919 4.919-1.266.058-1.644.07-4.85.07-3.204 0-3.584-.012-4.849-.07-3.26-.149-4.771-1.699-4.919-4.92-.058-1.265-.07-1.644-.07-4.849 0-3.204.013-3.583.07-4.849.149-3.227 1.664-4.771 4.919-4.919 1.266-.057 1.645-.069 4.849-.069zM12 0C8.741 0 8.333.014 7.053.072 2.695.272.273 2.69.073 7.052.014 8.333 0 8.741 0 12c0 3.259.014 3.668.072 4.948.2 4.358 2.618 6.78 6.98 6.98C8.333 23.986 8.741 24 12 24c3.259 0 3.668-.014 4.948-.072 4.354-.2 6.782-2.618 6.979-6.98.059-1.28.073-1.689.073-4.948 0-3.259-.014-3.667-.072-4.947-.196-4.354-2.617-6.78-6.979-6.98C15.668.014 15.259 0 12 0zm0 5.838a6.162 6.162 0 100 12.324 6.162 6.162 0 000-12.324zM12 16a4 4 0 110-8 4 4 0 010 8zm6.406-11.845a1.44 1.44 0 100 2.881 1.44 1.44 0 000-2.881z"></path>
  </symbol>

  <symbol xmlns="http://www.w3.org/2000/svg" viewBox="0 0 24 24" id="twitter">
    <path d="M24 4.557a9.83 9.83 0 01-2.828.775 4.932 4.932 0 002.165-2.724 9.864 9.864 0 01-3.127 1.195 4.916 4.916 0 00-3.594-1.555c-3.179 0-5.515 2.966-4.797 6.045A13.978 13.978 0 011.671 3.149a4.93 4.93 0 001.523 6.574 4.903 4.903 0 01-2.229-.616c-.054 2.281 1.581 4.415 3.949 4.89a4.935 4.935 0 01-2.224.084 4.928 4.928 0 004.6 3.419A9.9 9.9 0 010 19.54a13.94 13.94 0 007.548 2.212c9.142 0 14.307-7.721 13.995-14.646A10.025 10.025 0 0024 4.557z"></path>
  </symbol>
  
  <symbol xmlns="http://www.w3.org/2000/svg" viewBox="0 0 24 24" id="facebook">
    <path d="M9 8H6v4h3v12h5V12h3.642L18 8h-4V6.333C14 5.378 14.192 5 15.115 5H18V0h-3.808C10.596 0 9 1.583 9 4.615V8z"></path>
  </symbol>

  <symbol aria-hidden="true" data-prefix="fas" data-icon="check" xmlns="http://www.w3.org/2000/svg" viewBox="0 0 512 512" id="check">
    <path d="M173.898 439.404l-166.4-166.4c-9.997-9.997-9.997-26.206 0-36.204l36.203-36.204c9.997-9.998 26.207-9.998 36.204 0L192 312.69 432.095 72.596c9.997-9.997 26.207-9.997 36.204 0l36.203 36.204c9.997 9.997 9.997 26.206 0 36.204l-294.4 294.401c-9.998 9.997-26.207 9.997-36.204-.001z"></path>
  </symbol>

  <symbol xmlns="http://www.w3.org/2000/svg" fill-rule="evenodd" clip-rule="evenodd" viewBox="0 0 24 24" id="website">
    <path d="M3.405 14.899c1.974 2.021 4.28 3.15 7.095 3.15 5.243 0 9.5-4.256 9.5-9.5 0-3.04-1.25-5.209-3.198-7.14L18.211 0C20.517 2.098 21.99 5.119 22 8.48c.016 5.844-4.357 10.689-10 11.44V20c0 1.875 1.526 3 3 3h1v1H5v-1h1c1.499 0 3-1.151 3-3v-.071a11.484 11.484 0 01-7-3.626l1.405-1.404zM2 8.6A8.5 8.5 0 0110.5.1 8.5 8.5 0 112 8.6m8.883-7.064c-.163.005-.278.187-.404.291-.252.209-.897.619-1.257.494-.368-.126-1.155.468-1.281.473-.047.001.002-.45.253-.483-.109.016.883-.501.856-.609-.032-.128-1.982.582-1.895.725.041.065.211.065-.012.208-.127.077-.264.567-.384.567-.357.156-.38-.307-.777.29l-.634.256a7.05 7.05 0 00-1.827 3.67c-.009.057.237.16.268.199.08.095.08.505.119.638.098.339.339.527.524.835.109.184.29.648.233.84.077-.126.759.578.883.724.293.346.52.763.043 1.104-.154.111.233.8.034.97l-.257.065c-.252.155-.138.536.016.696A7.076 7.076 0 0017.573 8.6c0-.734-.125-1.474-.253-1.864a.43.43 0 00-.254-.268c-.182-.07-.948.422-1.063.18l-.405.005c-.085-.046-.321-.364-.429-.326-.219.08.336.683.487.763.142-.108.603-.329.703-.027.19.569-.522 1.193-.886 1.523-.544.491-.443-.319-.813-.604-.195-.149-.193-.468-.389-.578-.084-.047-.452-.468-.486-.564l-.002-.012.002.012-.013.105c-.067.052-.208-.189-.224-.227 0 .209.341.542.453.709.191.287.294.705.529.94.126.126.609.647.734.636l.645-.307c.456.108-1.073 2.271-1.218 2.538-.12.226.096.78.08 1.046-.021.306-.262.406-.491.572-.246.18-.188.528-.394.655-.366.226-.63.959-1.149.955-.154 0-.808.255-.894.005-.066-.181-.156-.319-.25-.498-.091-.175-.01-.357-.122-.512-.078-.108-.336-.352-.359-.48-.002-.109.083-.443.198-.502.163-.082.031-.324.011-.464-.034-.251-.189-.458-.376-.603-.275-.212-.132-.38-.068-.683 0-.144-.088-.333-.283-.277-.399.117-.277-.312-.568-.292-.21.014-.382.148-.577.206-.245.074-.496-.057-.738-.088-.997-.126-1.322-1.265-1.062-2.087l-.034-.488c.112-.25.341-.529.54-.718.112-.107.255-.08.387-.162.204-.128.207-.392.405-.553.284-.231.67-.226 1.041-.275.196-.027.946-.189 1.064-.043 0 .027.128.408-.002.407l-.012-.001.012.001c.306.027.736.528 1.023.409.15-.062.095-.522.403-.299.184.133 1.016.192 1.189.049.107-.088.167-.659.036-.723.082.082-.431.088-.48.069-.081-.03-.156.071-.282.026l-.013-.005c.039.015-.452-.262-.16-.475l-.382.076-.09.193c-.214.11-.376-.371-.456-.425-.082-.054-.718-.5-.545-.209l.559.556c-.028.018-.147-.202-.147-.041.037-.095.013.41-.074.245l.004-.189c0-.061-.161-.119-.193-.16-.088-.11-.324-.352-.451-.41-.035-.017-.541.061-.584.078l-.127.22a1.424 1.424 0 00-.296.151l-.111.25c-.049.043-.542.206-.545.212.021-.053-.345-.121-.321-.227.027-.117.151-.482.119-.615-.034-.14.761.201.813-.167.02-.159.031-.345-.223-.372.048.006.492-.174.566-.255.103-.119.341-.314.513-.314.201 0 .157-.292.25-.436.093.038-.05.267.062.36-.008-.073.315.039.346.023.075-.04.485-.016.421-.21-.071-.196.036-.138.129-.179-.016.006.24-.438.284-.292-.03-.15-.298.052-.391.045-.216-.018-.125-.368-.043-.472.063-.081-.172-.18-.175-.025-.004.233-.221.444-.171.754.077.467-.521-.112-.573-.081-.198.12-.36-.151-.258-.315l.462-.337c.074-.126.159-.272.273-.368.379-.318.483-.063.861-.029.369.034.124.088.074.23-.049.135.203.183.29.07.049-.065.163-.229.211-.35.063-.157.638-.139.237-.38-.265-.157-1.42-.476-2.194-.476l-.007.001zm.427 4.351c-.025-.047.242-.071.289-.071.053.006-.137.319-.289.071m1.803-1.092c-.003-.104-.134-.201-.27-.022-.095.124-.078.312-.129.395-.075.124.401.24.401.123.018-.197.519-.045.617-.018.175.048.455-.16.149-.27-.253-.092-.385-.189-.407-.37 0 0 .134-.124.075-.117-.155.018-.436.556-.436.279M9.786 3.711l.077-.021-.037.096c.061.11.016.175.006.235l-.105.065c-.038.047.182.054.185.06.008.024-.266.063-.215.121.067.097.583-.138.501-.124.159-.08.021-.089-.068-.135-.031-.152-.056-.387-.151-.482l.062-.071c-.146-.212-.255.256-.255.256m-.365.386c-.06.025-.12-.013-.061-.073l.062-.075-.006-.034.049-.062.051-.013.105-.073c.031.006.104.066.079.104l-.057.07c-.012.118-.132.117-.22.156h-.004.002"></path>
  </symbol>
  
  <symbol aria-hidden="true" data-prefix="far" data-icon="map" xmlns="http://www.w3.org/2000/svg" viewBox="0 0 576 512" id="address">
    <path d="M560.02 32c-1.96 0-3.98.37-5.96 1.16L384.01 96H384L212 35.28A64.252 64.252 0 00191.76 32c-6.69 0-13.37 1.05-19.81 3.14L20.12 87.95A32.006 32.006 0 000 117.66v346.32C0 473.17 7.53 480 15.99 480c1.96 0 3.97-.37 5.96-1.16L192 416l172 60.71a63.98 63.98 0 0040.05.15l151.83-52.81A31.996 31.996 0 00576 394.34V48.02c0-9.19-7.53-16.02-15.98-16.02zM224 90.42l128 45.19v285.97l-128-45.19V90.42zM48 418.05V129.07l128-44.53v286.2l-.64.23L48 418.05zm480-35.13l-128 44.53V141.26l.64-.24L528 93.95v288.97z"></path>
  </symbol>

  <symbol aria-hidden="true" data-prefix="fas" data-icon="phone-alt" xmlns="http://www.w3.org/2000/svg" viewBox="0 0 512 512" id="phone">
    <path d="M497.39 361.8l-112-48a24 24 0 00-28 6.9l-49.6 60.6A370.66 370.66 0 01130.6 204.11l60.6-49.6a23.94 23.94 0 006.9-28l-48-112A24.16 24.16 0 00122.6.61l-104 24A24 24 0 000 48c0 256.5 207.9 464 464 464a24 24 0 0023.4-18.6l24-104a24.29 24.29 0 00-14.01-27.6z"></path>
  </symbol>

  <symbol xmlns="http://www.w3.org/2000/svg" viewBox="0 0 24 24" id="email">
    <path d="M11.99 0L0 8.723V24h24V8.723L11.99 0zm.001 2.472l9.793 7.113-6.735 4.588L12 11.703l-3.049 2.471-6.737-4.589 9.777-7.113zM2 11.858l5.329 3.63L2 19.806v-7.948zM2.474 22L12 14.277 21.526 22H2.474zM22 19.806l-5.329-4.317L22 11.858v7.948z"></path>
  </symbol>
</svg>