<svg width="0" height="0" class="hidden">
  <symbol aria-hidden="true" data-prefix="fas" data-icon="quote-right" xmlns="http://www.w3.org/2000/svg" viewBox="0 0 512 512" id="quote">
    <path d="M464 32H336c-26.5 0-48 21.5-48 48v128c0 26.5 21.5 48 48 48h80v64c0 35.3-28.7 64-64 64h-8c-13.3 0-24 10.7-24 24v48c0 13.3 10.7 24 24 24h8c88.4 0 160-71.6 160-160V80c0-26.5-21.5-48-48-48zm-288 0H48C21.5 32 0 53.5 0 80v128c0 26.5 21.5 48 48 48h80v64c0 35.3-28.7 64-64 64h-8c-13.3 0-24 10.7-24 24v48c0 13.3 10.7 24 24 24h8c88.4 0 160-71.6 160-160V80c0-26.5-21.5-48-48-48z"></path>
  </symbol>

  <symbol version="1.0" xmlns="http://www.w3.org/2000/svg" viewBox="0 0 105 73" id="graph">
    <path d="M87.9 9.8c-1.5 1.3-2.2 3-2.2 5 0 2.8-1.3 4.3-9.3 11.2-8.6 7.4-9.5 7.9-11.8 6.9-1.9-.9-3.2-.9-5.4 0-2.7 1.1-3.7.9-10.1-2.3-3.9-2-7.1-4.1-7.1-4.7 0-2-5-5.9-7.5-5.9-3.9 0-7.9 4.4-7.2 8 .5 2.5-.4 4-6.9 11.4-6.2 7.2-8 8.6-10.4 8.6-5.9 0-9 6.7-5.4 11.8C5.7 61.4 7.1 62 9.9 62c4.6 0 7.1-2.4 7.5-7.4.4-4.4 12.8-19.4 16.3-19.5 1.2-.1 3.3-.6 4.6-1.2 2-.9 3.5-.5 9.5 2.5 4 2 7.2 4.2 7.2 4.9 0 2.2 4.4 5.7 7.1 5.7 3.3 0 6.5-2.4 7.3-5.5.4-1.4 4.6-6 10.3-10.9 8-7 10.2-8.4 12.3-8 3.9.8 8-2.9 8-7.2 0-6.5-6.9-9.7-12.1-5.6z"></path>
  </symbol>

  <symbol version="1.0" xmlns="http://www.w3.org/2000/svg" viewBox="0 0 105 95" id="heart">
    <path d="M22 4.5c-6.5 2.1-11.4 6.6-15.1 14-2.8 5.7-3.1 7.2-2.7 13.3.5 9.7 2.9 13.5 21 33.4C49.8 92.4 48.3 91 51.8 91c1.7 0 3.7-.2 4.5-.5 2.9-1.2 40.2-42.7 42.4-47.3 3.2-6.6 3.1-16.8-.1-23.7-4-8.6-12.7-15.1-21.5-16.2-6.4-.7-10.9.9-18.5 6.6l-6.2 4.7-3.9-3.3c-8.8-7.6-17-9.7-26.5-6.8zM37.9 11c2.1 1 6.3 4.2 9.3 6.9l5.5 5 2.9-3c1.6-1.7 5.5-4.8 8.8-7 4.5-3 6.8-3.9 10-3.9 13.4.1 23.7 13.9 20.7 27.6-1.4 5.9-1 5.4-25.4 31.9-10.5 11.3-15.5 16-17.1 16-1.6 0-7.3-5.7-20.7-20.5-10.2-11.3-19.3-21.9-20.1-23.5C2.9 22.9 21.1 2.4 37.9 11z"></path>
  </symbol>

  <symbol version="1.0" xmlns="http://www.w3.org/2000/svg" viewBox="0 0 105 103" id="key">
    <path d="M57.8 4C41 8.2 32 28.5 40.3 43.4l2.5 4.5-16 15.8C18 72.4 10.4 80.3 9.9 81.3c-.9 1.5.4 3.3 7.9 10.9 6.4 6.5 9.4 8.9 10.6 8.5 3-1.2 1.6-4.2-4.9-10.7-3.6-3.5-6.5-6.9-6.5-7.5 0-.6 1.6-2.6 3.5-4.5l3.5-3.4 7.5 7.3c4.1 4 8 7.1 8.7 6.9 3-1 1.6-4.1-4.6-11-3.6-4-6.6-7.5-6.6-7.8 0-.3 4-4.5 8.9-9.4l8.9-8.9 2.9 2C60 61 75.4 58.9 84.2 49.2c5.1-5.7 7-10.5 7.1-18.2.1-11-5.2-19.8-14.7-24.5C70.7 3.6 63.3 2.6 57.8 4zm16.1 7.6c12 6 15.7 21.1 7.8 31.7-8.9 11.8-27 11.5-35.4-.6-3.8-5.4-4.5-15.5-1.5-21.3C50.6 10.1 62.7 6 73.9 11.6z"></path>
  </symbol>

  <symbol version="1.0" xmlns="http://www.w3.org/2000/svg" viewBox="0 0 186 185" id="right-arrow">
    <path d="M87.4 13C80.4 15.2 74 24.3 74 32c0 7.3 2 10.2 16.7 25.2l14.6 14.7-40.5.3-40.5.3-4.1 2.9c-6.4 4.4-8.7 8.8-8.7 16.6 0 7.8 2.3 12.2 8.7 16.6l4.1 2.9 40.5.3 40.5.3-14.6 14.7C78.5 139.2 76 142.3 75 146c-4.3 15.8 9.2 29.2 25 25 4-1.1 8-4.7 36.8-33.3 17.8-17.7 33.2-33.6 34.3-35.3 2.6-4.2 3.4-10.9 1.9-16.4-1.1-4-4.7-8-33.3-36.8C122 31.4 106 16 104.3 14.9c-3.8-2.3-12.4-3.3-16.9-1.9z"></path>
  </symbol>
</svg>